<svg width="48" height="48" viewBox="0 0 48 48" fill="none" xmlns="http://www.w3.org/2000/svg">
<rect width="48" height="48" fill="white"/>
<path opacity="0.636649" d="M24.9605 29.3048V32.4788H23.9801V29.3048H15.6464C14.8342 29.3048 14.1758 28.511 14.1758 27.5318V25.1214V19.7996C14.1758 18.8199 14.8342 18.0257 15.6464 18.0257H23.6084V13.8684H24.5879V18.0257H33.2942C34.1064 18.0257 34.7649 18.8199 34.7649 19.7996V25.1214V27.5318C34.7649 28.511 34.1064 29.3048 33.2942 29.3048H24.9605ZM15.1562 25.1214V27.5318C15.1562 27.8582 15.3757 28.1228 15.6464 28.1228H33.2942C33.565 28.1228 33.7844 27.8582 33.7844 27.5318V25.1214V19.7996C33.7844 19.4731 33.565 19.2083 33.2942 19.2083H15.6464C15.3757 19.2083 15.1562 19.4731 15.1562 19.7996V25.1214Z" fill="#BEEDC0"/>
<path d="M18.8686 20.5808H10.4234C9.59117 20.5808 8.9165 21.2555 8.9165 22.0877V24.4323C8.9165 25.2645 9.59117 25.9392 10.4234 25.9392H18.8686C19.7008 25.9392 20.3755 25.2645 20.3755 24.4323V22.0877C20.3755 21.2555 19.7008 20.5808 18.8686 20.5808Z" fill="#4D9AFF"/>
<path d="M28.4179 8.97095H19.9727C19.1405 8.97095 18.4658 9.64561 18.4658 10.4779V12.8224C18.4658 13.6547 19.1405 14.3293 19.9727 14.3293H28.4179C29.2502 14.3293 29.9248 13.6547 29.9248 12.8224V10.4779C29.9248 9.64561 29.2502 8.97095 28.4179 8.97095Z" fill="#D341A5"/>
<path opacity="0.4" d="M27.7613 32.4788H21.1978C20.3656 32.4788 19.6909 33.1534 19.6909 33.9857V36.3302C19.6909 37.1625 20.3656 37.8372 21.1978 37.8372H27.7613C28.5935 37.8372 29.2682 37.1625 29.2682 36.3302V33.9857C29.2682 33.1534 28.5935 32.4788 27.7613 32.4788Z" fill="#D341A5"/>
<path d="M38.0224 20.5808H29.5772C28.745 20.5808 28.0703 21.2555 28.0703 22.0877V24.4323C28.0703 25.2645 28.745 25.9392 29.5772 25.9392H38.0224C38.8547 25.9392 39.5293 25.2645 39.5293 24.4323V22.0877C39.5293 21.2555 38.8547 20.5808 38.0224 20.5808Z" fill="#FFC74F"/>
</svg>
