<svg width="48" height="48" viewBox="0 0 48 48" fill="none" xmlns="http://www.w3.org/2000/svg">
<rect width="48" height="48" fill="white"/>
<path d="M17.0822 16.6587H12.5646C11.7849 16.6587 11.1528 17.2908 11.1528 18.0705V33.5999C11.1528 34.3796 11.7849 35.0116 12.5646 35.0116H17.0822C17.8619 35.0116 18.494 34.3796 18.494 33.5999V18.0705C18.494 17.2908 17.8619 16.6587 17.0822 16.6587Z" fill="#4D9AFF"/>
<path d="M26.2585 16.6587H21.7409C20.9612 16.6587 20.3291 17.2908 20.3291 18.0705V26.2587C20.3291 27.0384 20.9612 27.6705 21.7409 27.6705H26.2585C27.0382 27.6705 27.6703 27.0384 27.6703 26.2587V18.0705C27.6703 17.2908 27.0382 16.6587 26.2585 16.6587Z" fill="#D341A5"/>
<path d="M35.4353 16.6587H30.9176C30.1379 16.6587 29.5059 17.2908 29.5059 18.0705V33.5999C29.5059 34.3796 30.1379 35.0116 30.9176 35.0116H35.4353C36.215 35.0116 36.847 34.3796 36.847 33.5999V18.0705C36.847 17.2908 36.215 16.6587 35.4353 16.6587Z" fill="#FFC74F"/>
<path d="M17.5768 12.9885H12.071C11.5642 12.9885 11.1533 13.3994 11.1533 13.9062C11.1533 14.413 11.5642 14.8238 12.071 14.8238H17.5768C18.0837 14.8238 18.4945 14.413 18.4945 13.9062C18.4945 13.3994 18.0837 12.9885 17.5768 12.9885Z" fill="#4D9AFF"/>
<path d="M35.9294 12.988H30.4235C29.9167 12.988 29.5059 13.3989 29.5059 13.9057C29.5059 14.4125 29.9167 14.8233 30.4235 14.8233H35.9294C36.4362 14.8233 36.847 14.4125 36.847 13.9057C36.847 13.3989 36.4362 12.988 35.9294 12.988Z" fill="#FFC74F"/>
<path d="M26.7526 12.988H21.2467C20.7399 12.988 20.3291 13.3989 20.3291 13.9057C20.3291 14.4125 20.7399 14.8233 21.2467 14.8233H26.7526C27.2594 14.8233 27.6703 14.4125 27.6703 13.9057C27.6703 13.3989 27.2594 12.988 26.7526 12.988Z" fill="#D341A5"/>
</svg>
