<svg width="48" height="48" viewBox="0 0 48 48" fill="none" xmlns="http://www.w3.org/2000/svg">
<rect width="48" height="48" fill="white"/>
<path fill-rule="evenodd" clip-rule="evenodd" d="M36.7065 11.2939V23.1528H34.1643V22.3059C34.1643 20.4346 32.6473 18.9177 30.776 18.9177C28.9047 18.9177 27.3878 20.4346 27.3878 22.3059V23.1528H24.8477V18.9174H22.3069C21.3713 18.9174 20.6128 18.1589 20.6128 17.2233C20.6128 16.2877 21.3713 15.5292 22.3069 15.5292H24.8477V11.2939L36.7065 11.2939Z" fill="#D341A5"/>
<path fill-rule="evenodd" clip-rule="evenodd" d="M11.2949 11.294L23.1538 11.294L23.1538 13.8352L22.3072 13.8352C20.436 13.8352 18.919 15.3522 18.919 17.2235C18.919 19.0948 20.436 20.6117 22.3072 20.6117L23.1538 20.6117L23.1538 23.1528L18.9186 23.1528L18.9186 25.6941C18.9186 26.6297 18.1601 27.3882 17.2245 27.3882C16.2889 27.3882 15.5304 26.6297 15.5304 25.6941L15.5304 23.1528L11.2949 23.1528L11.2949 11.294Z" fill="#4D9AFF"/>
<path fill-rule="evenodd" clip-rule="evenodd" d="M36.7061 36.7061L24.8472 36.7061L24.8472 34.1648L25.6937 34.1648C27.565 34.1648 29.082 32.6478 29.082 30.7766C29.082 28.9053 27.565 27.3883 25.6937 27.3883L24.8472 27.3883L24.8472 24.8472L29.0823 24.8472L29.0823 22.3062C29.0823 21.3705 29.8408 20.6121 30.7765 20.6121C31.7121 20.6121 32.4706 21.3705 32.4706 22.3062L32.4706 24.8472L36.7061 24.8472L36.7061 36.7061Z" fill="#7DCC7A"/>
<path fill-rule="evenodd" clip-rule="evenodd" d="M11.2944 36.7058L11.2944 24.847L13.8367 24.847L13.8367 25.6938C13.8367 27.5651 15.3537 29.0821 17.225 29.0821C19.0962 29.0821 20.6132 27.5651 20.6132 25.6938L20.6132 24.847L23.1533 24.847L23.1533 29.0823L25.6941 29.0823C26.6297 29.0823 27.3882 29.8408 27.3882 30.7765C27.3882 31.7121 26.6297 32.4706 25.6941 32.4706L23.1533 32.4706L23.1533 36.7058L11.2944 36.7058Z" fill="#FFC74F"/>
</svg>
