<svg width="48" height="48" viewBox="0 0 48 48" fill="none" xmlns="http://www.w3.org/2000/svg">
<rect width="48" height="48" fill="white"/>
<path d="M37.2552 15.7009H16.4701C15.7933 15.7009 15.4081 16.2245 15.6088 16.8715L18.8969 25.5309C19.0589 26.051 19.6322 26.4724 20.1765 26.4724H33.8037C34.3481 26.4724 34.9206 26.051 35.0812 25.5309L37.9468 16.6439C38.1101 16.1231 37.801 15.7009 37.2552 15.7009Z" fill="#D341A5"/>
<path d="M36.6827 28.488H21.678L16.0124 12.7061H11.3351C10.5326 12.7061 9.88232 13.3588 9.88232 14.1645C9.88232 14.9701 10.5326 15.6229 11.3351 15.6229H13.946L19.6116 31.4048H36.6827C37.4852 31.4048 38.1354 30.752 38.1354 29.9464C38.1354 29.1408 37.4852 28.488 36.6827 28.488Z" fill="#4D9AFF"/>
<path d="M22.8361 35.5408C24.253 35.5408 25.4017 34.3877 25.4017 32.9652C25.4017 31.5428 24.253 30.3896 22.8361 30.3896C21.4192 30.3896 20.2705 31.5428 20.2705 32.9652C20.2705 34.3877 21.4192 35.5408 22.8361 35.5408Z" fill="#FFC74F"/>
<path d="M33.6027 35.5408C35.0196 35.5408 36.1683 34.3877 36.1683 32.9652C36.1683 31.5428 35.0196 30.3896 33.6027 30.3896C32.1858 30.3896 31.0371 31.5428 31.0371 32.9652C31.0371 34.3877 32.1858 35.5408 33.6027 35.5408Z" fill="#FFC74F"/>
</svg>
