<svg width="48" height="48" viewBox="0 0 48 48" fill="none" xmlns="http://www.w3.org/2000/svg">
<rect width="48" height="48" fill="white"/>
<path d="M36.1245 20.2676C39.8091 16.6073 41.0187 11.8507 38.8262 9.64355C36.6336 7.43638 31.8691 8.61439 28.1844 12.2747C24.4997 15.9351 23.2901 20.6916 25.4827 22.8988C27.6753 25.106 32.4398 23.9279 36.1245 20.2676Z" fill="#1F80FF"/>
<path d="M34.8136 36.0443C36.4647 34.381 35.6621 30.9072 33.021 28.2853C30.3798 25.6634 26.9001 24.8863 25.249 26.5496C23.5978 28.2129 24.4004 31.6867 27.0416 34.3086C29.6828 36.9305 33.1624 37.7076 34.8136 36.0443Z" fill="#43A047"/>
<path d="M21.5488 22.9011C23.7414 20.694 22.5318 15.9374 18.8471 12.2771C15.1624 8.61674 10.398 7.43872 8.20537 9.64589C6.01279 11.8531 7.22238 16.6096 10.9071 20.27C14.5918 23.9303 19.3562 25.1083 21.5488 22.9011Z" fill="#CF2C91"/>
<path d="M19.9912 34.3063C22.6324 31.6844 23.4349 28.2105 21.7838 26.5472C20.1326 24.8839 16.653 25.661 14.0118 28.2829C11.3706 30.9048 10.568 34.3787 12.2192 36.042C13.8703 37.7053 17.35 36.9282 19.9912 34.3063Z" fill="#F48500"/>
</svg>
