<svg width="48" height="48" viewBox="0 0 48 48" fill="none" xmlns="http://www.w3.org/2000/svg">
<path d="M48 0H0V48H48V0Z" fill="white"/>
<path d="M17.6562 28.1992C17.6562 25.082 20.174 22.4443 23.4111 22.4443H24.73C27.8472 22.4443 30.4849 24.9621 30.4849 28.1992V35.1531H17.6562V28.1992Z" fill="#D341A5"/>
<path d="M24.0106 20.8854C26.6592 20.8854 28.8063 18.7383 28.8063 16.0897C28.8063 13.4411 26.6592 11.2939 24.0106 11.2939C21.362 11.2939 19.2148 13.4411 19.2148 16.0897C19.2148 18.7383 21.362 20.8854 24.0106 20.8854Z" fill="#D341A5"/>
<path d="M34.3212 24.1229C36.5063 24.1229 38.2777 22.3516 38.2777 20.1665C38.2777 17.9813 36.5063 16.21 34.3212 16.21C32.1361 16.21 30.3647 17.9813 30.3647 20.1665C30.3647 22.3516 32.1361 24.1229 34.3212 24.1229Z" fill="#FFC74F"/>
<path d="M13.6997 24.1229C15.8848 24.1229 17.6561 22.3516 17.6561 20.1665C17.6561 17.9813 15.8848 16.21 13.6997 16.21C11.5145 16.21 9.74316 17.9813 9.74316 20.1665C9.74316 22.3516 11.5145 24.1229 13.6997 24.1229Z" fill="#4D9AFF"/>
<path fill-rule="evenodd" clip-rule="evenodd" d="M35.1607 25.6812H33.6021V35.1527H39.9564V30.357C39.8365 27.8392 37.7983 25.6812 35.1607 25.6812Z" fill="#FFC74F"/>
<path fill-rule="evenodd" clip-rule="evenodd" d="M12.8599 25.6812H14.4186V35.1527H8.18408V30.357C8.18408 27.8392 10.2223 25.6812 12.8599 25.6812Z" fill="#4D9AFF"/>
</svg>
