<?xml version="1.0" encoding="UTF-8"?>
<svg width="20px" height="20px" viewBox="0 0 20 20" version="1.1" xmlns="http://www.w3.org/2000/svg" xmlns:xlink="http://www.w3.org/1999/xlink">
    <title>Slice</title>
    <g id="Page-1" stroke="none" stroke-width="1" fill="none" fill-rule="evenodd">
        <g id="Group-11-Copy" transform="translate(2.000000, 3.000000)" stroke="#1F80FF">
            <path d="M0,0 L2.44521938,0 C2.89803274,-8.31804643e-17 3.29433728,0.304271078 3.41128964,0.741720597 L5.62149173,9.00877745 C5.90677929,10.0758692 7.00309932,10.7096467 8.07019106,10.4243592 C8.0895874,10.4191735 8.10890455,10.4136961 8.12813595,10.4079288 L12.6561638,9.05001532 C13.2160967,8.88209665 13.6745363,8.47760966 13.9108917,7.94295317 L15.3791908,4.621534 C15.6024928,4.11640564 15.3740274,3.52589616 14.868899,3.30259417 C14.7415392,3.24629225 14.6038245,3.21720999 14.464575,3.21720999 L4.16927506,3.21720999 L4.16927506,3.21720999" id="Path-22" stroke-linejoin="round"></path>
            <circle id="Oval" cx="8" cy="13.3125" r="1"></circle>
            <circle id="Oval-Copy-5" cx="13" cy="13.3125" r="1"></circle>
        </g>
    </g>
</svg>