<?xml version="1.0" encoding="utf-8"?>
<!-- Generator: Adobe Illustrator 25.4.1, SVG Export Plug-In . SVG Version: 6.00 Build 0)  -->
<!DOCTYPE svg PUBLIC "-//W3C//DTD SVG 1.1//EN" "http://www.w3.org/Graphics/SVG/1.1/DTD/svg11.dtd" [
	<!ENTITY ns_extend "http://ns.adobe.com/Extensibility/1.0/">
	<!ENTITY ns_ai "http://ns.adobe.com/AdobeIllustrator/10.0/">
	<!ENTITY ns_graphs "http://ns.adobe.com/Graphs/1.0/">
	<!ENTITY ns_vars "http://ns.adobe.com/Variables/1.0/">
	<!ENTITY ns_imrep "http://ns.adobe.com/ImageReplacement/1.0/">
	<!ENTITY ns_sfw "http://ns.adobe.com/SaveForWeb/1.0/">
	<!ENTITY ns_custom "http://ns.adobe.com/GenericCustomNamespace/1.0/">
	<!ENTITY ns_adobe_xpath "http://ns.adobe.com/XPath/1.0/">
]>
<svg version="1.1" id="Layer_1" xmlns:x="&ns_extend;" xmlns:i="&ns_ai;" xmlns:graph="&ns_graphs;"
	 xmlns="http://www.w3.org/2000/svg" xmlns:xlink="http://www.w3.org/1999/xlink" x="0px" y="0px" width="20px" height="20px"
	 viewBox="0 0 20 20" style="enable-background:new 0 0 20 20;" xml:space="preserve">
<style type="text/css">
	.st0{fill:none;stroke:#1F80FF;}
</style>
<metadata>
	<sfw  xmlns="&ns_sfw;">
		<slices></slices>
		<sliceSourceBounds  bottomLeftOrigin="true" height="13" width="14" x="3" y="3"></sliceSourceBounds>
	</sfw>
</metadata>
<g id="Page-1">
	<g id="Group-13-Copy" transform="translate(3.000000, 3.500000)">
		<path id="Rectangle-Copy-45" class="st0" d="M3.5,5v5c0,0.6-0.4,1-1,1h-1c-0.6,0-1-0.4-1-1V5c0-0.6,0.4-1,1-1h1
			C3.1,4,3.5,4.4,3.5,5z"/>
		<path id="Rectangle-Copy-46" class="st0" d="M3.5,1.5L3.5,1.5C3.5,1.8,3.3,2,3,2H1C0.7,2,0.5,1.8,0.5,1.5l0,0C0.5,1.2,0.7,1,1,1h2
			C3.3,1,3.5,1.2,3.5,1.5z"/>
		<path id="Rectangle-Copy-47" class="st0" d="M8.5,1.5L8.5,1.5C8.5,1.8,8.3,2,8,2H6C5.7,2,5.5,1.8,5.5,1.5l0,0C5.5,1.2,5.7,1,6,1h2
			C8.3,1,8.5,1.2,8.5,1.5z"/>
		<path id="Rectangle-Copy-48" class="st0" d="M13.5,1.5L13.5,1.5C13.5,1.8,13.3,2,13,2h-2c-0.3,0-0.5-0.2-0.5-0.5l0,0
			C10.5,1.2,10.7,1,11,1h2C13.3,1,13.5,1.2,13.5,1.5z"/>
		<path id="Rectangle-Copy-49" class="st0" d="M8.5,5v7c0,0.6-0.4,1-1,1h-1c-0.6,0-1-0.4-1-1V5c0-0.6,0.4-1,1-1h1
			C8.1,4,8.5,4.4,8.5,5z"/>
		<path id="Rectangle-Copy-50" class="st0" d="M13.5,5v2c0,0.6-0.4,1-1,1h-1c-0.6,0-1-0.4-1-1V5c0-0.6,0.4-1,1-1h1
			C13.1,4,13.5,4.4,13.5,5z"/>
	</g>
</g>
</svg>
